<svg width="154" height="158" viewBox="0 0 154 158" fill="none" xmlns="http://www.w3.org/2000/svg">
<g clip-path="url(#clip0_1_11)">
<path d="M154 0H0V109L73 158L154 109V0Z" fill="#CE2121" stroke="#CE2121"/>
<path d="M114.671 70.072L114.708 69.7863C114.912 68.1958 115.063 66.6195 115.063 65C115.063 63.3798 114.912 61.7529 114.707 60.06L114.673 59.7736L114.903 59.6003L125.745 51.4534C125.746 51.4529 125.746 51.4524 125.747 51.4519C126.515 50.8608 126.73 49.7911 126.233 48.8998L115.956 31.6054L115.95 31.5946L115.95 31.5946C115.46 30.7212 114.342 30.3538 113.435 30.7146L113.432 30.7157L100.633 35.7157L100.378 35.8154L100.156 35.6539C97.505 33.7198 94.7682 32.0456 91.5839 30.8165L91.3106 30.711L91.269 30.4211L89.3683 17.1797C89.2838 16.7136 89.0328 16.2883 88.6554 15.98C88.2758 15.6697 87.7932 15.4987 87.2932 15.5L87.2919 15.5L66.7308 15.5C65.6806 15.5 64.82 16.2319 64.6546 17.1781L62.7537 30.4211L62.7121 30.711L62.4388 30.8165C59.2545 32.0456 56.5177 33.7198 53.8664 35.6539L53.645 35.8154L53.3898 35.7157L40.5905 30.7157L40.5876 30.7146C39.681 30.3538 38.5628 30.7212 38.073 31.5946L38.0669 31.6055L38.0667 31.6054L27.7862 48.9054L27.7837 48.9096C27.2556 49.779 27.4918 50.8483 28.2757 51.4519C28.2764 51.4524 28.2771 51.4529 28.2777 51.4534L39.1195 59.6003L39.3502 59.7736L39.3156 60.06C39.1108 61.7529 38.9594 63.3798 38.9594 65C38.9594 66.6195 39.1107 68.1958 39.3151 69.7863L39.3518 70.072L39.123 70.2471L28.2777 78.5466C28.2777 78.5466 28.2776 78.5467 28.2775 78.5467C27.4922 79.15 27.2552 80.2204 27.7837 81.0904L27.7862 81.0946L38.0667 98.3946L38.0732 98.4054L38.073 98.4054C38.553 99.2613 39.6645 99.6073 40.5977 99.2815L53.3882 94.2349L53.6478 94.1325L53.8713 94.2997C56.5194 96.2811 59.255 97.9546 62.4388 99.1835L62.7121 99.289L62.7537 99.579L64.6546 112.822C64.82 113.768 65.6806 114.5 66.7308 114.5H87.2919C88.3421 114.5 89.2027 113.768 89.3681 112.822L91.269 99.579L91.31 99.2934L91.5776 99.186C94.7694 97.9047 97.5075 96.2779 100.151 94.2997L100.375 94.1325L100.634 94.2349L113.425 99.2814C114.358 99.6073 115.47 99.2613 115.95 98.4054L115.956 98.3945L115.956 98.3946L126.233 81.1002C126.73 80.2084 126.514 79.1379 125.746 78.5471L114.671 70.072ZM114.671 70.072L114.9 70.2471L125.745 78.5466L114.671 70.072ZM63.9412 77.7328C67.4099 81.1068 72.1116 83 77.0114 83C81.9111 83 86.6128 81.1068 90.0815 77.7328C93.5507 74.3583 95.5023 69.7784 95.5023 65C95.5023 60.2216 93.5507 55.6418 90.0815 52.2672C86.6128 48.8932 81.9111 47 77.0114 47C72.1116 47 67.4099 48.8932 63.9412 52.2672C60.472 55.6418 58.5204 60.2216 58.5204 65C58.5204 69.7784 60.472 74.3583 63.9412 77.7328Z" fill="white" stroke="#CE2121"/>
<circle cx="77" cy="65" r="19" fill="#CE2121"/>
</g>
<defs>
<clipPath id="clip0_1_11">
<rect width="154" height="158" fill="white"/>
</clipPath>
</defs>
</svg>
