<svg width="156" height="160" viewBox="0 0 156 160" fill="none" xmlns="http://www.w3.org/2000/svg">
<path d="M155 1H1V110L74 159L155 110V1Z" fill="#BAA8A8" stroke="#BAA8A8"/>
<path d="M74.6468 14.7812C75.5449 12.0172 79.4551 12.0172 80.3532 14.7812L89.287 42.2766C89.6886 43.5127 90.8405 44.3496 92.1402 44.3496H121.051C123.957 44.3496 125.165 48.0684 122.814 49.7766L99.4249 66.7697C98.3735 67.5337 97.9335 68.8878 98.3351 70.1238L107.269 97.6193C108.167 100.383 105.004 102.682 102.652 100.973L79.2634 83.9803C78.2119 83.2163 76.7881 83.2163 75.7366 83.9803L52.3476 100.973C49.9965 102.682 46.833 100.383 47.7311 97.6193L56.6649 70.1238C57.0665 68.8878 56.6266 67.5337 55.5751 66.7697L32.1861 49.7766C29.8349 48.0684 31.0432 44.3496 33.9494 44.3496H62.8598C64.1595 44.3496 65.3114 43.5127 65.713 42.2766L74.6468 14.7812Z" fill="white"/>
</svg>
