<svg width="960" height="1750" viewBox="0 0 960 1750" fill="none" xmlns="http://www.w3.org/2000/svg">
<path d="M18.9717 1679.64V70.324C18.9717 56.7022 22.6145 43.6383 29.0988 34.0062C35.583 24.3741 44.3776 18.9629 53.5477 18.9629H725.015C734.182 18.9749 742.971 24.394 749.449 34.0288L930.858 303.503C934.083 308.289 936.639 313.974 938.38 320.232C940.121 326.491 941.011 333.198 941 339.97V1679.64C941 1686.38 940.106 1693.06 938.368 1699.29C936.63 1705.53 934.083 1711.19 930.873 1715.96C927.662 1720.73 923.85 1724.51 919.656 1727.09C915.461 1729.67 910.964 1731 906.424 1731H53.5477C49.0071 1731 44.511 1729.67 40.3161 1727.09C36.1211 1724.51 32.3095 1720.73 29.0988 1715.96C25.8881 1711.19 23.3412 1705.53 21.6036 1699.29C19.866 1693.06 18.9717 1686.38 18.9717 1679.64ZM249.479 703.778H710.493ZM249.479 1388.59H710.493ZM249.479 1046.19H479.986Z" fill="#E77D7D"/>
<path d="M249.479 703.778H710.493M249.479 1388.59H710.493M249.479 1046.19H479.986M18.9717 1679.64V70.324C18.9717 56.7022 22.6145 43.6383 29.0988 34.0062C35.583 24.3741 44.3776 18.9629 53.5477 18.9629H725.015C734.182 18.9749 742.971 24.394 749.449 34.0288L930.858 303.503C934.083 308.289 936.639 313.974 938.38 320.232C940.121 326.491 941.011 333.198 941 339.97V1679.64C941 1686.38 940.106 1693.06 938.368 1699.29C936.63 1705.53 934.083 1711.19 930.873 1715.96C927.662 1720.73 923.85 1724.51 919.656 1727.09C915.461 1729.67 910.964 1731 906.424 1731H53.5477C49.0071 1731 44.511 1729.67 40.3161 1727.09C36.1211 1724.51 32.3095 1720.73 29.0988 1715.96C25.8881 1711.19 23.3412 1705.53 21.6036 1699.29C19.866 1693.06 18.9717 1686.38 18.9717 1679.64Z" stroke="#CE2121" stroke-width="37" stroke-linecap="round" stroke-linejoin="round"/>
<path d="M710.493 18.9629V310.009C710.493 323.631 714.135 336.695 720.62 346.327C727.104 355.959 735.899 361.37 745.069 361.37H941" fill="#E77D7D"/>
<path d="M710.493 18.9629V310.009C710.493 323.631 714.135 336.695 720.62 346.327C727.104 355.959 735.899 361.37 745.069 361.37H941" stroke="#CE2121" stroke-width="37" stroke-linecap="round" stroke-linejoin="round"/>
</svg>
