<svg width="69" height="54" viewBox="0 0 69 54" fill="none" xmlns="http://www.w3.org/2000/svg">
<path d="M51.5627 53.5H0.5V0.5H51.5706L68.4075 26.2903L51.5627 53.5Z" fill="#CE2121"/>
<path d="M51.5627 53.5H0.5V0.5H51.5706L68.4075 26.2903L51.5627 53.5Z" stroke="#CE2121"/>
<path d="M51.5627 53.5H0.5V0.5H51.5706L68.4075 26.2903L51.5627 53.5Z" stroke="black" stroke-opacity="0.2"/>
<path d="M18.3977 12.2727H19.4545V18.5114C19.4545 19.0682 19.3523 19.5412 19.1477 19.9304C18.9432 20.3196 18.6548 20.6151 18.2827 20.8168C17.9105 21.0185 17.4716 21.1193 16.9659 21.1193C16.4886 21.1193 16.0639 21.0327 15.6918 20.8594C15.3196 20.6832 15.027 20.4332 14.8139 20.1094C14.6009 19.7855 14.4943 19.4006 14.4943 18.9545H15.5341C15.5341 19.2017 15.5952 19.4176 15.7173 19.6023C15.8423 19.7841 16.0128 19.9261 16.2287 20.0284C16.4446 20.1307 16.6903 20.1818 16.9659 20.1818C17.2699 20.1818 17.5284 20.1179 17.7415 19.9901C17.9545 19.8622 18.1165 19.6747 18.2273 19.4276C18.3409 19.1776 18.3977 18.8722 18.3977 18.5114V12.2727ZM23.3622 21.1534C22.9474 21.1534 22.571 21.0753 22.233 20.919C21.8949 20.7599 21.6264 20.5312 21.4276 20.233C21.2287 19.9318 21.1293 19.5682 21.1293 19.142C21.1293 18.767 21.2031 18.4631 21.3509 18.2301C21.4986 17.9943 21.696 17.8097 21.9432 17.6761C22.1903 17.5426 22.4631 17.4432 22.7614 17.3778C23.0625 17.3097 23.3651 17.2557 23.669 17.2159C24.0668 17.1648 24.3892 17.1264 24.6364 17.1009C24.8864 17.0724 25.0682 17.0256 25.1818 16.9602C25.2983 16.8949 25.3565 16.7812 25.3565 16.6193V16.5852C25.3565 16.1648 25.2415 15.8381 25.0114 15.6051C24.7841 15.3722 24.4389 15.2557 23.9759 15.2557C23.4957 15.2557 23.1193 15.3608 22.8466 15.571C22.5739 15.7812 22.3821 16.0057 22.2713 16.2443L21.3168 15.9034C21.4872 15.5057 21.7145 15.196 21.9986 14.9744C22.2855 14.75 22.598 14.5937 22.9361 14.5057C23.277 14.4148 23.6122 14.3693 23.9418 14.3693C24.152 14.3693 24.3935 14.3949 24.6662 14.446C24.9418 14.4943 25.2074 14.5952 25.4631 14.7486C25.7216 14.902 25.9361 15.1335 26.1065 15.4432C26.277 15.7528 26.3622 16.1676 26.3622 16.6875V21H25.3565V20.1136H25.3054C25.2372 20.2557 25.1236 20.4077 24.9645 20.5696C24.8054 20.7315 24.5938 20.8693 24.3295 20.983C24.0653 21.0966 23.7429 21.1534 23.3622 21.1534ZM23.5156 20.25C23.9134 20.25 24.2486 20.1719 24.5213 20.0156C24.7969 19.8594 25.0043 19.6577 25.1435 19.4105C25.2855 19.1634 25.3565 18.9034 25.3565 18.6307V17.7102C25.3139 17.7614 25.2202 17.8082 25.0753 17.8509C24.9332 17.8906 24.7685 17.9261 24.581 17.9574C24.3963 17.9858 24.2159 18.0114 24.0398 18.0341C23.8665 18.054 23.7259 18.071 23.6179 18.0852C23.3565 18.1193 23.1122 18.1747 22.8849 18.2514C22.6605 18.3253 22.4787 18.4375 22.3395 18.5881C22.2031 18.7358 22.1349 18.9375 22.1349 19.1932C22.1349 19.5426 22.2642 19.8068 22.5227 19.9858C22.7841 20.1619 23.1151 20.25 23.5156 20.25ZM29.2035 17.0625V21H28.1978V14.4545H29.1694V15.4773H29.2546C29.408 15.1449 29.641 14.8778 29.9535 14.6761C30.266 14.4716 30.6694 14.3693 31.1637 14.3693C31.6069 14.3693 31.9947 14.4602 32.3271 14.642C32.6594 14.821 32.918 15.0938 33.1026 15.4602C33.2873 15.8239 33.3796 16.2841 33.3796 16.8409V21H32.3739V16.9091C32.3739 16.3949 32.2404 15.9943 31.9734 15.7074C31.7063 15.4176 31.3398 15.2727 30.8739 15.2727C30.5529 15.2727 30.266 15.3423 30.0131 15.4815C29.7631 15.6207 29.5657 15.8239 29.4208 16.0909C29.2759 16.358 29.2035 16.6818 29.2035 17.0625ZM14.9034 36V35.233L17.7841 32.0795C18.1222 31.7102 18.4006 31.3892 18.6193 31.1165C18.8381 30.8409 19 30.5824 19.1051 30.3409C19.2131 30.0966 19.267 29.8409 19.267 29.5739C19.267 29.267 19.1932 29.0014 19.0455 28.777C18.9006 28.5526 18.7017 28.3793 18.4489 28.2571C18.196 28.1349 17.9119 28.0739 17.5966 28.0739C17.2614 28.0739 16.9688 28.1435 16.7188 28.2827C16.4716 28.419 16.2798 28.6108 16.1435 28.858C16.0099 29.1051 15.9432 29.3949 15.9432 29.7273H14.9375C14.9375 29.2159 15.0554 28.767 15.2912 28.3807C15.527 27.9943 15.848 27.6932 16.2543 27.4773C16.6634 27.2614 17.1222 27.1534 17.6307 27.1534C18.142 27.1534 18.5952 27.2614 18.9901 27.4773C19.3849 27.6932 19.6946 27.9844 19.919 28.3509C20.1435 28.7173 20.2557 29.125 20.2557 29.5739C20.2557 29.8949 20.1974 30.2088 20.081 30.5156C19.9673 30.8196 19.7685 31.1591 19.4844 31.5341C19.2031 31.9062 18.8125 32.3608 18.3125 32.8977L16.3523 34.9943V35.0625H20.4091V36H14.9034ZM22.4418 36L26.3452 28.2784V28.2102H21.8452V27.2727H27.4361V28.2614L23.5497 36H22.4418Z" fill="white"/>
</svg>
