<svg width="790" height="522" viewBox="0 0 790 522" fill="none" xmlns="http://www.w3.org/2000/svg">
<path d="M1 521V1H581L789 241L581 521H1Z" fill="#CE2121" stroke="#CE2121"/>
<path d="M273.659 167.909H284.932V234.455C284.932 240.394 283.841 245.439 281.659 249.591C279.477 253.742 276.402 256.894 272.432 259.045C268.462 261.197 263.78 262.273 258.386 262.273C253.295 262.273 248.765 261.348 244.795 259.5C240.826 257.621 237.705 254.955 235.432 251.5C233.159 248.045 232.023 243.939 232.023 239.182H243.114C243.114 241.818 243.765 244.121 245.068 246.091C246.402 248.03 248.22 249.545 250.523 250.636C252.826 251.727 255.447 252.273 258.386 252.273C261.629 252.273 264.386 251.591 266.659 250.227C268.932 248.864 270.659 246.864 271.841 244.227C273.053 241.561 273.659 238.303 273.659 234.455V167.909ZM326.614 262.636C322.189 262.636 318.174 261.803 314.568 260.136C310.962 258.439 308.098 256 305.977 252.818C303.856 249.606 302.795 245.727 302.795 241.182C302.795 237.182 303.583 233.939 305.159 231.455C306.735 228.939 308.841 226.97 311.477 225.545C314.114 224.121 317.023 223.061 320.205 222.364C323.417 221.636 326.644 221.061 329.886 220.636C334.129 220.091 337.568 219.682 340.205 219.409C342.871 219.106 344.811 218.606 346.023 217.909C347.265 217.212 347.886 216 347.886 214.273V213.909C347.886 209.424 346.659 205.939 344.205 203.455C341.78 200.97 338.098 199.727 333.159 199.727C328.038 199.727 324.023 200.848 321.114 203.091C318.205 205.333 316.159 207.727 314.977 210.273L304.795 206.636C306.614 202.394 309.038 199.091 312.068 196.727C315.129 194.333 318.462 192.667 322.068 191.727C325.705 190.758 329.28 190.273 332.795 190.273C335.038 190.273 337.614 190.545 340.523 191.091C343.462 191.606 346.295 192.682 349.023 194.318C351.78 195.955 354.068 198.424 355.886 201.727C357.705 205.03 358.614 209.455 358.614 215V261H347.886V251.545H347.341C346.614 253.061 345.402 254.682 343.705 256.409C342.008 258.136 339.75 259.606 336.932 260.818C334.114 262.03 330.674 262.636 326.614 262.636ZM328.25 253C332.492 253 336.068 252.167 338.977 250.5C341.917 248.833 344.129 246.682 345.614 244.045C347.129 241.409 347.886 238.636 347.886 235.727V225.909C347.432 226.455 346.432 226.955 344.886 227.409C343.371 227.833 341.614 228.212 339.614 228.545C337.644 228.848 335.72 229.121 333.841 229.364C331.992 229.576 330.492 229.758 329.341 229.909C326.553 230.273 323.947 230.864 321.523 231.682C319.129 232.47 317.189 233.667 315.705 235.273C314.25 236.848 313.523 239 313.523 241.727C313.523 245.455 314.902 248.273 317.659 250.182C320.447 252.061 323.977 253 328.25 253ZM388.92 219V261H378.193V191.182H388.557V202.091H389.466C391.102 198.545 393.587 195.697 396.92 193.545C400.254 191.364 404.557 190.273 409.83 190.273C414.557 190.273 418.693 191.242 422.239 193.182C425.784 195.091 428.542 198 430.511 201.909C432.481 205.788 433.466 210.697 433.466 216.636V261H422.739V217.364C422.739 211.879 421.314 207.606 418.466 204.545C415.617 201.455 411.708 199.909 406.739 199.909C403.314 199.909 400.254 200.652 397.557 202.136C394.89 203.621 392.784 205.788 391.239 208.636C389.693 211.485 388.92 214.939 388.92 219ZM308.864 322.909V416H297.591V334.727H297.045L274.318 349.818V338.364L297.591 322.909H308.864ZM335.636 416V407.818L366.364 374.182C369.97 370.242 372.939 366.818 375.273 363.909C377.606 360.97 379.333 358.212 380.455 355.636C381.606 353.03 382.182 350.303 382.182 347.455C382.182 344.182 381.394 341.348 379.818 338.955C378.273 336.561 376.152 334.712 373.455 333.409C370.758 332.106 367.727 331.455 364.364 331.455C360.788 331.455 357.667 332.197 355 333.682C352.364 335.136 350.318 337.182 348.864 339.818C347.439 342.455 346.727 345.545 346.727 349.091H336C336 343.636 337.258 338.848 339.773 334.727C342.288 330.606 345.712 327.394 350.045 325.091C354.409 322.788 359.303 321.636 364.727 321.636C370.182 321.636 375.015 322.788 379.227 325.091C383.439 327.394 386.742 330.5 389.136 334.409C391.53 338.318 392.727 342.667 392.727 347.455C392.727 350.879 392.106 354.227 390.864 357.5C389.652 360.742 387.53 364.364 384.5 368.364C381.5 372.333 377.333 377.182 372 382.909L351.091 405.273V406H394.364V416H335.636Z" fill="white"/>
</svg>
