<svg width="790" height="522" viewBox="0 0 790 522" fill="none" xmlns="http://www.w3.org/2000/svg">
<path d="M1 521V1H581L789 241L581 521H1Z" fill="#CE2121" stroke="#CE2121"/>
<path d="M253.659 155.909H264.932V222.455C264.932 228.394 263.841 233.439 261.659 237.591C259.477 241.742 256.402 244.894 252.432 247.045C248.462 249.197 243.78 250.273 238.386 250.273C233.295 250.273 228.765 249.348 224.795 247.5C220.826 245.621 217.705 242.955 215.432 239.5C213.159 236.045 212.023 231.939 212.023 227.182H223.114C223.114 229.818 223.765 232.121 225.068 234.091C226.402 236.03 228.22 237.545 230.523 238.636C232.826 239.727 235.447 240.273 238.386 240.273C241.629 240.273 244.386 239.591 246.659 238.227C248.932 236.864 250.659 234.864 251.841 232.227C253.053 229.561 253.659 226.303 253.659 222.455V155.909ZM306.614 250.636C302.189 250.636 298.174 249.803 294.568 248.136C290.962 246.439 288.098 244 285.977 240.818C283.856 237.606 282.795 233.727 282.795 229.182C282.795 225.182 283.583 221.939 285.159 219.455C286.735 216.939 288.841 214.97 291.477 213.545C294.114 212.121 297.023 211.061 300.205 210.364C303.417 209.636 306.644 209.061 309.886 208.636C314.129 208.091 317.568 207.682 320.205 207.409C322.871 207.106 324.811 206.606 326.023 205.909C327.265 205.212 327.886 204 327.886 202.273V201.909C327.886 197.424 326.659 193.939 324.205 191.455C321.78 188.97 318.098 187.727 313.159 187.727C308.038 187.727 304.023 188.848 301.114 191.091C298.205 193.333 296.159 195.727 294.977 198.273L284.795 194.636C286.614 190.394 289.038 187.091 292.068 184.727C295.129 182.333 298.462 180.667 302.068 179.727C305.705 178.758 309.28 178.273 312.795 178.273C315.038 178.273 317.614 178.545 320.523 179.091C323.462 179.606 326.295 180.682 329.023 182.318C331.78 183.955 334.068 186.424 335.886 189.727C337.705 193.03 338.614 197.455 338.614 203V249H327.886V239.545H327.341C326.614 241.061 325.402 242.682 323.705 244.409C322.008 246.136 319.75 247.606 316.932 248.818C314.114 250.03 310.674 250.636 306.614 250.636ZM308.25 241C312.492 241 316.068 240.167 318.977 238.5C321.917 236.833 324.129 234.682 325.614 232.045C327.129 229.409 327.886 226.636 327.886 223.727V213.909C327.432 214.455 326.432 214.955 324.886 215.409C323.371 215.833 321.614 216.212 319.614 216.545C317.644 216.848 315.72 217.121 313.841 217.364C311.992 217.576 310.492 217.758 309.341 217.909C306.553 218.273 303.947 218.864 301.523 219.682C299.129 220.47 297.189 221.667 295.705 223.273C294.25 224.848 293.523 227 293.523 229.727C293.523 233.455 294.902 236.273 297.659 238.182C300.447 240.061 303.977 241 308.25 241ZM368.92 207V249H358.193V179.182H368.557V190.091H369.466C371.102 186.545 373.587 183.697 376.92 181.545C380.254 179.364 384.557 178.273 389.83 178.273C394.557 178.273 398.693 179.242 402.239 181.182C405.784 183.091 408.542 186 410.511 189.909C412.481 193.788 413.466 198.697 413.466 204.636V249H402.739V205.364C402.739 199.879 401.314 195.606 398.466 192.545C395.617 189.455 391.708 187.909 386.739 187.909C383.314 187.909 380.254 188.652 377.557 190.136C374.89 191.621 372.784 193.788 371.239 196.636C369.693 199.485 368.92 202.939 368.92 207ZM287.614 310.909V404H276.341V322.727H275.795L253.068 337.818V326.364L276.341 310.909H287.614ZM344.75 405.273C337.902 405.273 332.068 403.409 327.25 399.682C322.432 395.924 318.75 390.485 316.205 383.364C313.659 376.212 312.386 367.576 312.386 357.455C312.386 347.394 313.659 338.803 316.205 331.682C318.78 324.53 322.477 319.076 327.295 315.318C332.144 311.53 337.962 309.636 344.75 309.636C351.538 309.636 357.341 311.53 362.159 315.318C367.008 319.076 370.705 324.53 373.25 331.682C375.826 338.803 377.114 347.394 377.114 357.455C377.114 367.576 375.841 376.212 373.295 383.364C370.75 390.485 367.068 395.924 362.25 399.682C357.432 403.409 351.598 405.273 344.75 405.273ZM344.75 395.273C351.538 395.273 356.811 392 360.568 385.455C364.326 378.909 366.205 369.576 366.205 357.455C366.205 349.394 365.341 342.53 363.614 336.864C361.917 331.197 359.462 326.879 356.25 323.909C353.068 320.939 349.235 319.455 344.75 319.455C338.023 319.455 332.765 322.773 328.977 329.409C325.189 336.015 323.295 345.364 323.295 357.455C323.295 365.515 324.144 372.364 325.841 378C327.538 383.636 329.977 387.924 333.159 390.864C336.371 393.803 340.235 395.273 344.75 395.273Z" fill="white"/>
</svg>
