<svg width="790" height="522" viewBox="0 0 790 522" fill="none" xmlns="http://www.w3.org/2000/svg">
<path d="M1 521V1H581L789 241L581 521H1Z" fill="#CE2121" stroke="#CE2121"/>
<path d="M269.659 127.909H280.932V194.455C280.932 200.394 279.841 205.439 277.659 209.591C275.477 213.742 272.402 216.894 268.432 219.045C264.462 221.197 259.78 222.273 254.386 222.273C249.295 222.273 244.765 221.348 240.795 219.5C236.826 217.621 233.705 214.955 231.432 211.5C229.159 208.045 228.023 203.939 228.023 199.182H239.114C239.114 201.818 239.765 204.121 241.068 206.091C242.402 208.03 244.22 209.545 246.523 210.636C248.826 211.727 251.447 212.273 254.386 212.273C257.629 212.273 260.386 211.591 262.659 210.227C264.932 208.864 266.659 206.864 267.841 204.227C269.053 201.561 269.659 198.303 269.659 194.455V127.909ZM322.614 222.636C318.189 222.636 314.174 221.803 310.568 220.136C306.962 218.439 304.098 216 301.977 212.818C299.856 209.606 298.795 205.727 298.795 201.182C298.795 197.182 299.583 193.939 301.159 191.455C302.735 188.939 304.841 186.97 307.477 185.545C310.114 184.121 313.023 183.061 316.205 182.364C319.417 181.636 322.644 181.061 325.886 180.636C330.129 180.091 333.568 179.682 336.205 179.409C338.871 179.106 340.811 178.606 342.023 177.909C343.265 177.212 343.886 176 343.886 174.273V173.909C343.886 169.424 342.659 165.939 340.205 163.455C337.78 160.97 334.098 159.727 329.159 159.727C324.038 159.727 320.023 160.848 317.114 163.091C314.205 165.333 312.159 167.727 310.977 170.273L300.795 166.636C302.614 162.394 305.038 159.091 308.068 156.727C311.129 154.333 314.462 152.667 318.068 151.727C321.705 150.758 325.28 150.273 328.795 150.273C331.038 150.273 333.614 150.545 336.523 151.091C339.462 151.606 342.295 152.682 345.023 154.318C347.78 155.955 350.068 158.424 351.886 161.727C353.705 165.03 354.614 169.455 354.614 175V221H343.886V211.545H343.341C342.614 213.061 341.402 214.682 339.705 216.409C338.008 218.136 335.75 219.606 332.932 220.818C330.114 222.03 326.674 222.636 322.614 222.636ZM324.25 213C328.492 213 332.068 212.167 334.977 210.5C337.917 208.833 340.129 206.682 341.614 204.045C343.129 201.409 343.886 198.636 343.886 195.727V185.909C343.432 186.455 342.432 186.955 340.886 187.409C339.371 187.833 337.614 188.212 335.614 188.545C333.644 188.848 331.72 189.121 329.841 189.364C327.992 189.576 326.492 189.758 325.341 189.909C322.553 190.273 319.947 190.864 317.523 191.682C315.129 192.47 313.189 193.667 311.705 195.273C310.25 196.848 309.523 199 309.523 201.727C309.523 205.455 310.902 208.273 313.659 210.182C316.447 212.061 319.977 213 324.25 213ZM384.92 179V221H374.193V151.182H384.557V162.091H385.466C387.102 158.545 389.587 155.697 392.92 153.545C396.254 151.364 400.557 150.273 405.83 150.273C410.557 150.273 414.693 151.242 418.239 153.182C421.784 155.091 424.542 158 426.511 161.909C428.481 165.788 429.466 170.697 429.466 176.636V221H418.739V177.364C418.739 171.879 417.314 167.606 414.466 164.545C411.617 161.455 407.708 159.909 402.739 159.909C399.314 159.909 396.254 160.652 393.557 162.136C390.89 163.621 388.784 165.788 387.239 168.636C385.693 171.485 384.92 174.939 384.92 179ZM304.676 282.909V376H293.403V294.727H292.858L270.131 309.818V298.364L293.403 282.909H304.676ZM360.54 377.273C355.206 377.273 350.403 376.212 346.131 374.091C341.858 371.97 338.434 369.061 335.858 365.364C333.282 361.667 331.873 357.455 331.631 352.727H342.54C342.964 356.939 344.873 360.424 348.267 363.182C351.691 365.909 355.782 367.273 360.54 367.273C364.358 367.273 367.752 366.379 370.722 364.591C373.722 362.803 376.07 360.348 377.767 357.227C379.494 354.076 380.358 350.515 380.358 346.545C380.358 342.485 379.464 338.864 377.676 335.682C375.919 332.47 373.494 329.939 370.403 328.091C367.313 326.242 363.782 325.303 359.812 325.273C356.964 325.242 354.04 325.682 351.04 326.591C348.04 327.47 345.57 328.606 343.631 330L333.085 328.727L338.722 282.909H387.085V292.909H348.176L344.903 320.364H345.449C347.358 318.848 349.752 317.591 352.631 316.591C355.509 315.591 358.509 315.091 361.631 315.091C367.328 315.091 372.403 316.455 376.858 319.182C381.343 321.879 384.858 325.576 387.403 330.273C389.979 334.97 391.267 340.333 391.267 346.364C391.267 352.303 389.934 357.606 387.267 362.273C384.631 366.909 380.994 370.576 376.358 373.273C371.722 375.939 366.449 377.273 360.54 377.273Z" fill="white"/>
</svg>
