<svg width="778" height="514" viewBox="0 0 778 514" fill="none" xmlns="http://www.w3.org/2000/svg">
<path d="M1 513V1H569L777 233L569 513H1Z" fill="#CE2121" stroke="#CE2121"/>
<path d="M247.659 122.909H258.932V189.455C258.932 195.394 257.841 200.439 255.659 204.591C253.477 208.742 250.402 211.894 246.432 214.045C242.462 216.197 237.78 217.273 232.386 217.273C227.295 217.273 222.765 216.348 218.795 214.5C214.826 212.621 211.705 209.955 209.432 206.5C207.159 203.045 206.023 198.939 206.023 194.182H217.114C217.114 196.818 217.765 199.121 219.068 201.091C220.402 203.03 222.22 204.545 224.523 205.636C226.826 206.727 229.447 207.273 232.386 207.273C235.629 207.273 238.386 206.591 240.659 205.227C242.932 203.864 244.659 201.864 245.841 199.227C247.053 196.561 247.659 193.303 247.659 189.455V122.909ZM300.614 217.636C296.189 217.636 292.174 216.803 288.568 215.136C284.962 213.439 282.098 211 279.977 207.818C277.856 204.606 276.795 200.727 276.795 196.182C276.795 192.182 277.583 188.939 279.159 186.455C280.735 183.939 282.841 181.97 285.477 180.545C288.114 179.121 291.023 178.061 294.205 177.364C297.417 176.636 300.644 176.061 303.886 175.636C308.129 175.091 311.568 174.682 314.205 174.409C316.871 174.106 318.811 173.606 320.023 172.909C321.265 172.212 321.886 171 321.886 169.273V168.909C321.886 164.424 320.659 160.939 318.205 158.455C315.78 155.97 312.098 154.727 307.159 154.727C302.038 154.727 298.023 155.848 295.114 158.091C292.205 160.333 290.159 162.727 288.977 165.273L278.795 161.636C280.614 157.394 283.038 154.091 286.068 151.727C289.129 149.333 292.462 147.667 296.068 146.727C299.705 145.758 303.28 145.273 306.795 145.273C309.038 145.273 311.614 145.545 314.523 146.091C317.462 146.606 320.295 147.682 323.023 149.318C325.78 150.955 328.068 153.424 329.886 156.727C331.705 160.03 332.614 164.455 332.614 170V216H321.886V206.545H321.341C320.614 208.061 319.402 209.682 317.705 211.409C316.008 213.136 313.75 214.606 310.932 215.818C308.114 217.03 304.674 217.636 300.614 217.636ZM302.25 208C306.492 208 310.068 207.167 312.977 205.5C315.917 203.833 318.129 201.682 319.614 199.045C321.129 196.409 321.886 193.636 321.886 190.727V180.909C321.432 181.455 320.432 181.955 318.886 182.409C317.371 182.833 315.614 183.212 313.614 183.545C311.644 183.848 309.72 184.121 307.841 184.364C305.992 184.576 304.492 184.758 303.341 184.909C300.553 185.273 297.947 185.864 295.523 186.682C293.129 187.47 291.189 188.667 289.705 190.273C288.25 191.848 287.523 194 287.523 196.727C287.523 200.455 288.902 203.273 291.659 205.182C294.447 207.061 297.977 208 302.25 208ZM362.92 174V216H352.193V146.182H362.557V157.091H363.466C365.102 153.545 367.587 150.697 370.92 148.545C374.254 146.364 378.557 145.273 383.83 145.273C388.557 145.273 392.693 146.242 396.239 148.182C399.784 150.091 402.542 153 404.511 156.909C406.481 160.788 407.466 165.697 407.466 171.636V216H396.739V172.364C396.739 166.879 395.314 162.606 392.466 159.545C389.617 156.455 385.708 154.909 380.739 154.909C377.314 154.909 374.254 155.652 371.557 157.136C368.89 158.621 366.784 160.788 365.239 163.636C363.693 166.485 362.92 169.939 362.92 174ZM243.324 371V362.818L274.051 329.182C277.657 325.242 280.627 321.818 282.96 318.909C285.294 315.97 287.021 313.212 288.142 310.636C289.294 308.03 289.869 305.303 289.869 302.455C289.869 299.182 289.081 296.348 287.506 293.955C285.96 291.561 283.839 289.712 281.142 288.409C278.445 287.106 275.415 286.455 272.051 286.455C268.475 286.455 265.354 287.197 262.688 288.682C260.051 290.136 258.006 292.182 256.551 294.818C255.127 297.455 254.415 300.545 254.415 304.091H243.688C243.688 298.636 244.945 293.848 247.46 289.727C249.975 285.606 253.4 282.394 257.733 280.091C262.097 277.788 266.991 276.636 272.415 276.636C277.869 276.636 282.703 277.788 286.915 280.091C291.127 282.394 294.43 285.5 296.824 289.409C299.218 293.318 300.415 297.667 300.415 302.455C300.415 305.879 299.794 309.227 298.551 312.5C297.339 315.742 295.218 319.364 292.188 323.364C289.188 327.333 285.021 332.182 279.688 337.909L258.778 360.273V361H302.051V371H243.324ZM323.733 371L365.369 288.636V287.909H317.369V277.909H377.006V288.455L335.551 371H323.733Z" fill="white"/>
</svg>
