<svg width="790" height="522" viewBox="0 0 790 522" fill="none" xmlns="http://www.w3.org/2000/svg">
<path d="M1 521V1H581L789 241L581 521H1Z" fill="#CE2121" stroke="#CE2121"/>
<path d="M281.659 144.909H292.932V211.455C292.932 217.394 291.841 222.439 289.659 226.591C287.477 230.742 284.402 233.894 280.432 236.045C276.462 238.197 271.78 239.273 266.386 239.273C261.295 239.273 256.765 238.348 252.795 236.5C248.826 234.621 245.705 231.955 243.432 228.5C241.159 225.045 240.023 220.939 240.023 216.182H251.114C251.114 218.818 251.765 221.121 253.068 223.091C254.402 225.03 256.22 226.545 258.523 227.636C260.826 228.727 263.447 229.273 266.386 229.273C269.629 229.273 272.386 228.591 274.659 227.227C276.932 225.864 278.659 223.864 279.841 221.227C281.053 218.561 281.659 215.303 281.659 211.455V144.909ZM334.614 239.636C330.189 239.636 326.174 238.803 322.568 237.136C318.962 235.439 316.098 233 313.977 229.818C311.856 226.606 310.795 222.727 310.795 218.182C310.795 214.182 311.583 210.939 313.159 208.455C314.735 205.939 316.841 203.97 319.477 202.545C322.114 201.121 325.023 200.061 328.205 199.364C331.417 198.636 334.644 198.061 337.886 197.636C342.129 197.091 345.568 196.682 348.205 196.409C350.871 196.106 352.811 195.606 354.023 194.909C355.265 194.212 355.886 193 355.886 191.273V190.909C355.886 186.424 354.659 182.939 352.205 180.455C349.78 177.97 346.098 176.727 341.159 176.727C336.038 176.727 332.023 177.848 329.114 180.091C326.205 182.333 324.159 184.727 322.977 187.273L312.795 183.636C314.614 179.394 317.038 176.091 320.068 173.727C323.129 171.333 326.462 169.667 330.068 168.727C333.705 167.758 337.28 167.273 340.795 167.273C343.038 167.273 345.614 167.545 348.523 168.091C351.462 168.606 354.295 169.682 357.023 171.318C359.78 172.955 362.068 175.424 363.886 178.727C365.705 182.03 366.614 186.455 366.614 192V238H355.886V228.545H355.341C354.614 230.061 353.402 231.682 351.705 233.409C350.008 235.136 347.75 236.606 344.932 237.818C342.114 239.03 338.674 239.636 334.614 239.636ZM336.25 230C340.492 230 344.068 229.167 346.977 227.5C349.917 225.833 352.129 223.682 353.614 221.045C355.129 218.409 355.886 215.636 355.886 212.727V202.909C355.432 203.455 354.432 203.955 352.886 204.409C351.371 204.833 349.614 205.212 347.614 205.545C345.644 205.848 343.72 206.121 341.841 206.364C339.992 206.576 338.492 206.758 337.341 206.909C334.553 207.273 331.947 207.864 329.523 208.682C327.129 209.47 325.189 210.667 323.705 212.273C322.25 213.848 321.523 216 321.523 218.727C321.523 222.455 322.902 225.273 325.659 227.182C328.447 229.061 331.977 230 336.25 230ZM396.92 196V238H386.193V168.182H396.557V179.091H397.466C399.102 175.545 401.587 172.697 404.92 170.545C408.254 168.364 412.557 167.273 417.83 167.273C422.557 167.273 426.693 168.242 430.239 170.182C433.784 172.091 436.542 175 438.511 178.909C440.481 182.788 441.466 187.697 441.466 193.636V238H430.739V194.364C430.739 188.879 429.314 184.606 426.466 181.545C423.617 178.455 419.708 176.909 414.739 176.909C411.314 176.909 408.254 177.652 405.557 179.136C402.89 180.621 400.784 182.788 399.239 185.636C397.693 188.485 396.92 191.939 396.92 196ZM273.136 393V384.818L303.864 351.182C307.47 347.242 310.439 343.818 312.773 340.909C315.106 337.97 316.833 335.212 317.955 332.636C319.106 330.03 319.682 327.303 319.682 324.455C319.682 321.182 318.894 318.348 317.318 315.955C315.773 313.561 313.652 311.712 310.955 310.409C308.258 309.106 305.227 308.455 301.864 308.455C298.288 308.455 295.167 309.197 292.5 310.682C289.864 312.136 287.818 314.182 286.364 316.818C284.939 319.455 284.227 322.545 284.227 326.091H273.5C273.5 320.636 274.758 315.848 277.273 311.727C279.788 307.606 283.212 304.394 287.545 302.091C291.909 299.788 296.803 298.636 302.227 298.636C307.682 298.636 312.515 299.788 316.727 302.091C320.939 304.394 324.242 307.5 326.636 311.409C329.03 315.318 330.227 319.667 330.227 324.455C330.227 327.879 329.606 331.227 328.364 334.5C327.152 337.742 325.03 341.364 322 345.364C319 349.333 314.833 354.182 309.5 359.909L288.591 382.273V383H331.864V393H273.136ZM382.091 394.273C376.091 394.273 370.742 393.242 366.045 391.182C361.379 389.121 357.667 386.258 354.909 382.591C352.182 378.894 350.697 374.606 350.455 369.727H361.909C362.152 372.727 363.182 375.318 365 377.5C366.818 379.652 369.197 381.318 372.136 382.5C375.076 383.682 378.333 384.273 381.909 384.273C385.909 384.273 389.455 383.576 392.545 382.182C395.636 380.788 398.061 378.848 399.818 376.364C401.576 373.879 402.455 371 402.455 367.727C402.455 364.303 401.606 361.288 399.909 358.682C398.212 356.045 395.727 353.985 392.455 352.5C389.182 351.015 385.182 350.273 380.455 350.273H373V340.273H380.455C384.152 340.273 387.394 339.606 390.182 338.273C393 336.939 395.197 335.061 396.773 332.636C398.379 330.212 399.182 327.364 399.182 324.091C399.182 320.939 398.485 318.197 397.091 315.864C395.697 313.53 393.727 311.712 391.182 310.409C388.667 309.106 385.697 308.455 382.273 308.455C379.061 308.455 376.03 309.045 373.182 310.227C370.364 311.379 368.061 313.061 366.273 315.273C364.485 317.455 363.515 320.091 363.364 323.182H352.455C352.636 318.303 354.106 314.03 356.864 310.364C359.621 306.667 363.227 303.788 367.682 301.727C372.167 299.667 377.091 298.636 382.455 298.636C388.212 298.636 393.152 299.803 397.273 302.136C401.394 304.439 404.561 307.485 406.773 311.273C408.985 315.061 410.091 319.152 410.091 323.545C410.091 328.788 408.712 333.258 405.955 336.955C403.227 340.652 399.515 343.212 394.818 344.636V345.364C400.697 346.333 405.288 348.833 408.591 352.864C411.894 356.864 413.545 361.818 413.545 367.727C413.545 372.788 412.167 377.333 409.409 381.364C406.682 385.364 402.955 388.515 398.227 390.818C393.5 393.121 388.121 394.273 382.091 394.273Z" fill="white"/>
</svg>
